<svg width="100" height="100" viewBox="0 0 100 100" fill="none" xmlns="http://www.w3.org/2000/svg">
<rect width="100" height="100" rx="30" fill="#0E71EB"/>
<mask id="mask0" mask-type="alpha" maskUnits="userSpaceOnUse" x="30" y="30" width="41" height="40">
<path d="M50.0358 69.9801C48.1383 70.0414 46.4223 69.706 44.7049 69.3319C43.8205 69.1392 43.5076 68.8651 43.7948 67.8715C44.8821 64.1011 48.9385 62.388 52.5433 63.8741C54.335 64.6122 55.3909 65.6972 56.1639 67.3004C56.7226 68.4639 56.5797 69.1863 55.1252 69.4333C53.3935 69.7331 51.6775 70.0886 50.0358 69.9801Z" fill="#E3402C"/>
<path d="M42.6316 63.8484C42.6316 64.0283 42.6431 64.2096 42.6316 64.3895C42.393 67.7244 41.38 68.2441 38.6753 66.4153C36.192 64.735 34.266 62.5493 32.7043 59.991C31.997 58.8346 32.3285 58.3421 33.463 57.8653C37.8594 56.0222 42.6245 59.103 42.6316 63.8484Z" fill="#E3402C"/>
<path d="M36.1449 42.3756C35.8449 42.3756 35.5405 42.4013 35.2419 42.3756C32.2572 42.0744 31.8357 41.1964 33.4273 38.7324C35.1276 36.0856 37.4594 34.1397 40.1013 32.4922C41.0686 31.8898 41.5687 32.1096 42.0487 33.0776C44.1648 37.3447 40.9729 42.407 36.1449 42.3756Z" fill="#E3402C"/>
<path d="M57.6642 64.0583C57.4941 58.8803 62.5521 56.2492 66.8471 57.9338C67.9001 58.3478 68.203 58.8332 67.5743 59.9439C65.7355 63.1932 63.145 65.6158 59.9302 67.4574C59.0187 67.9785 58.6443 67.6573 58.2843 66.8607C57.8513 65.9099 57.5656 64.942 57.6642 64.0583Z" fill="#E3402C"/>
<path d="M30.0011 49.8235C29.9979 48.0149 30.2441 46.2144 30.7326 44.4728C30.9841 43.562 31.3156 43.3122 32.2443 43.5991C34.9076 44.4243 36.8436 47.0054 36.8493 49.8806C36.8493 52.6545 34.9547 55.2485 32.3929 56.0693C31.4542 56.3691 30.9912 56.2121 30.6969 55.1828C30.2164 53.4374 29.9822 51.6336 30.0011 49.8235V49.8235Z" fill="#E3402C"/>
<path d="M70.1233 49.9477C70.1905 51.7123 69.9447 53.374 69.5518 55.0301C69.3217 56.0151 68.9217 56.442 67.7944 56.0765C65.1896 55.2314 63.2922 52.5917 63.3651 49.6951C63.4351 46.8455 65.524 44.173 68.1244 43.5406C68.8588 43.3607 69.1903 43.5035 69.4103 44.2915C69.919 46.1717 70.2005 48.0647 70.1233 49.9477Z" fill="#E3402C"/>
<path d="M57.6027 35.9057C57.627 35.5445 57.6312 35.1819 57.677 34.8236C58.0527 31.8741 58.8386 31.54 61.2675 33.2146C63.8394 34.9935 65.8726 37.2477 67.5314 39.8916C68.1629 40.8995 67.9072 41.3321 66.9485 41.8089C62.6721 43.9375 57.6227 40.7653 57.6027 35.9057Z" fill="#E3402C"/>
<path d="M50.1144 36.6866C47.1753 36.7094 44.5163 34.6751 43.7805 31.9441C43.5747 31.1988 43.6505 30.8091 44.4592 30.6692C48.1741 30.0225 51.8818 29.5856 55.6153 30.6121C56.5197 30.8605 56.544 31.3102 56.3454 32.0683C55.6581 34.6765 53.0048 36.668 50.1144 36.6866Z" fill="#E3402C"/>
<path d="M52.0118 59.4756C51.896 60.9147 51.1188 61.5328 49.9657 61.4743C48.7741 61.4129 48.1297 60.6277 48.214 59.41C48.2926 58.2593 49.0199 57.6668 50.1286 57.6968C51.3402 57.7268 51.9446 58.4635 52.0118 59.4756Z" fill="#E3402C"/>
<path d="M57.0297 44.8283C55.8138 44.6855 55.1394 43.9974 55.1566 42.8054C55.1737 41.6804 55.8938 40.9766 56.9854 40.9609C58.1513 40.9438 58.9358 41.6105 58.9458 42.8539C58.9558 44.0974 58.1885 44.6741 57.0297 44.8283Z" fill="#E3402C"/>
<path d="M59.6416 51.7922C58.4642 51.6623 57.817 50.9599 57.8513 49.7678C57.8841 48.6329 58.5985 47.9762 59.7087 47.9733C60.9046 47.9733 61.6576 48.6629 61.6347 49.8835C61.6105 51.0727 60.9132 51.7437 59.6416 51.7922Z" fill="#E3402C"/>
<path d="M42.3616 49.8535C42.1845 50.9956 41.6015 51.7794 40.3613 51.7651C39.1211 51.7508 38.4624 50.9927 38.4796 49.8064C38.4953 48.6914 39.194 48.009 40.3142 47.9805C41.5358 47.9505 42.1716 48.69 42.3616 49.8535Z" fill="#E3402C"/>
<path d="M57.0812 58.7347C55.7453 58.6205 55.128 57.921 55.1895 56.7118C55.2481 55.584 55.9224 54.9387 57.0555 54.9458C58.2814 54.9458 58.9701 55.6696 58.9544 56.8717C58.9387 58.0737 58.2057 58.6947 57.0812 58.7347Z" fill="#E3402C"/>
<path d="M45.0107 42.5455C44.9878 44.036 44.3234 44.7783 43.1532 44.8097C41.983 44.8412 41.2443 44.1202 41.23 42.8939C41.2172 41.7518 41.8916 41.0508 42.9832 40.9937C44.1548 40.9338 44.8463 41.6333 45.0107 42.5455Z" fill="#E3402C"/>
<path d="M45.0192 56.5962C44.9892 57.9909 44.3206 58.669 43.1275 58.6919C41.9045 58.7147 41.2429 57.9909 41.2429 56.776C41.2429 55.6411 41.8745 54.9572 43.0089 54.9344C44.1891 54.9101 44.9078 55.5269 45.0192 56.5962Z" fill="#E3402C"/>
<path d="M51.9904 40.2599C51.8832 41.4791 51.2188 42.1344 50.0044 42.1001C48.7599 42.063 48.1726 41.3049 48.2284 40.1015C48.2826 38.9594 48.9685 38.3441 50.0858 38.3541C51.2903 38.3626 51.9461 39.0379 51.9904 40.2599Z" fill="#E3402C"/>
</mask>
<g mask="url(#mask0)">
<rect x="17" y="16" width="53" height="63" fill="white"/>
</g>
</svg>
