<svg width="100" height="100" viewBox="0 0 100 100" fill="none" xmlns="http://www.w3.org/2000/svg">
<rect width="100" height="100" rx="30" fill="#F2F2F7"/>
<mask id="mask0" mask-type="alpha" maskUnits="userSpaceOnUse" x="20" y="38" width="61" height="25">
<path d="M74.1704 38.005C74.1704 39.2863 74.1704 40.5663 74.1704 41.8501C74.1704 41.958 74.138 41.9742 74.0372 41.9742C73.3977 41.968 72.7594 41.9742 72.1211 41.9742C72.0935 41.9742 72.0663 41.9813 72.0421 41.9948C72.0179 42.0083 71.9976 42.0276 71.983 42.0511L69.6875 44.8729L67.1555 47.9937C66.5525 48.738 65.949 49.4793 65.3452 50.2177C65.3351 50.2267 65.327 50.2377 65.3215 50.25C65.316 50.2623 65.3131 50.2756 65.3131 50.2891C65.3131 50.3025 65.316 50.3158 65.3215 50.3281C65.327 50.3404 65.3351 50.3514 65.3452 50.3604C66.4019 51.6545 67.457 52.9499 68.5105 54.2465C69.7439 55.7597 70.9756 57.2747 72.2058 58.7912C72.2383 58.8385 72.2825 58.8766 72.3342 58.9019C72.3859 58.9271 72.4432 58.9385 72.5006 58.9351C73.0207 58.9252 73.5408 58.9351 74.0609 58.9277C74.1617 58.9277 74.1853 58.9574 74.1853 59.0517C74.1853 60.3293 74.1853 61.6069 74.1853 62.8845C74.1853 62.9701 74.1641 62.9949 74.0758 62.9949H64.3809C64.3001 62.9949 64.2739 62.9763 64.2752 62.8907C64.2752 61.6032 64.2752 60.3148 64.2752 59.0257C64.2752 58.945 64.3013 58.9289 64.3772 58.9289C65.1345 58.9289 65.8918 58.9289 66.6491 58.9289H66.7822C66.6952 58.8198 66.6217 58.7255 66.5458 58.6337C65.2419 57.0295 63.9372 55.4261 62.6316 53.8235C62.5183 53.6846 62.5196 53.6846 62.4076 53.8235L58.9437 58.0817L58.2669 58.9165C58.3062 58.9328 58.3494 58.9375 58.3913 58.9302C59.1453 58.9302 59.8993 58.9302 60.6533 58.9302C60.7453 58.9302 60.7777 58.9525 60.7777 59.0467C60.7777 60.3243 60.7777 61.6015 60.7777 62.8783C60.7777 62.9453 60.7777 63.0023 60.6831 62.9961C59.273 62.9961 57.8629 62.9961 56.4528 62.9961H56.4205C56.4205 61.6904 56.4205 60.3843 56.4205 59.0778C56.4205 58.9674 56.3956 58.9351 56.2811 58.9364C55.3529 58.9364 54.4248 58.9364 53.4966 58.9364C53.4095 58.9364 53.3821 58.9128 53.3846 58.8247C53.3846 58.6027 53.3846 58.3807 53.3846 58.1586V58.1214C53.412 58.0917 53.4418 58.0644 53.468 58.0334L57.2404 53.3857C58.0599 52.3776 58.8807 51.3692 59.7027 50.3604C59.7487 50.3046 59.7413 50.2735 59.7027 50.2227C59.3319 49.7695 58.9624 49.3147 58.5941 48.8583L54.0017 43.222C53.7964 42.9739 53.6011 42.7097 53.3796 42.4703V42.4269C53.3796 40.998 53.3796 39.574 53.3796 38.1402C53.3796 38.0459 53.3485 38.0248 53.2552 38.0248C52.4502 38.0248 51.644 38.0248 50.839 38.0248C50.8384 38.0178 50.8384 38.0107 50.839 38.0037H60.7777C60.7777 38.0434 60.769 38.0843 60.769 38.1278C60.769 39.3681 60.769 40.6122 60.769 41.8601C60.769 41.9518 60.7441 41.9779 60.6508 41.9766C59.9864 41.9766 59.322 41.9766 58.66 41.9766C58.624 41.9766 58.5742 41.9593 58.5555 41.9928C58.5369 42.0263 58.5842 42.0635 58.6078 42.092C58.9661 42.5361 59.3257 42.9789 59.6865 43.4204L62.4163 46.7695C62.5183 46.8935 62.5171 46.8935 62.6166 46.7695L66.1353 42.4418L66.5185 41.9667H66.3679C65.7073 41.9667 65.0466 41.9667 64.3859 41.9667C64.2988 41.9667 64.2727 41.9444 64.2727 41.8563C64.2727 40.5713 64.2727 39.2867 64.2727 38.0025L74.1704 38.005Z" fill="#7E7E84"/>
<path d="M53.3796 58.1177C53.3796 58.1301 53.3796 58.1425 53.3796 58.1549C53.1855 58.3906 52.9889 58.625 52.796 58.8632C52.7771 58.8874 52.7524 58.9066 52.7242 58.919C52.6959 58.9313 52.665 58.9364 52.6343 58.9339C52.0819 58.9339 51.5294 58.9339 50.977 58.9339C50.8601 58.9339 50.8352 58.9674 50.8364 59.0778C50.8364 60.3339 50.8364 61.5908 50.8364 62.8485C50.8364 62.8932 50.8364 62.9378 50.8451 62.9812C50.8432 62.9864 50.8432 62.9922 50.8451 62.9974C50.3885 62.9974 49.9319 62.9974 49.4765 62.9974C49.3894 62.9974 49.372 62.9676 49.3732 62.8882C49.3732 62.3921 49.3732 61.9046 49.3732 61.4122V61.2881C49.3322 61.2745 49.3123 61.303 49.2899 61.3179C48.1227 62.134 46.7823 62.6705 45.3731 62.8857C43.8076 63.1279 42.2065 62.9838 40.7099 62.4662C39.2132 61.9485 37.8666 61.073 36.788 59.9163C36.7743 59.8995 36.7626 59.8812 36.7532 59.8617C36.7532 59.8195 36.7831 59.7947 36.8067 59.7687C37.4779 59.0016 38.0207 58.1317 38.4142 57.1924C38.4652 57.0684 38.4652 57.0684 38.3309 57.0684H35.0984C35.0586 57.0684 35.0175 57.0684 34.974 57.0746L34.9304 57.0634C34.7787 56.6842 34.6467 56.2976 34.5348 55.9049C34.436 55.5735 34.3649 55.2345 34.322 54.8915C34.3668 54.8915 34.4104 54.8828 34.4552 54.8828H38.2239C38.2749 54.8828 38.3271 54.8828 38.3794 54.8766L38.4068 54.889C38.7292 55.9839 39.3762 56.956 40.2629 57.6776C41.1495 58.3993 42.2343 58.8368 43.3749 58.9326C44.2619 59.0234 45.1573 58.8837 45.974 58.527C48.0519 57.5955 49.1455 55.9557 49.3583 53.7181C49.4171 53.0566 49.3522 52.3899 49.1667 51.7521C48.8589 50.59 48.1764 49.561 47.2245 48.8236C46.6169 48.3377 45.9099 47.9905 45.1532 47.8066C44.3965 47.6228 43.6085 47.6066 42.8449 47.7593C41.1204 48.0706 39.8214 49.0121 38.9268 50.5105C38.9032 50.5502 38.8945 50.601 38.8447 50.6233C38.7999 50.6072 38.8049 50.5638 38.795 50.5303C38.4027 49.1504 37.7054 47.8755 36.7545 46.7993V46.7645C36.7627 46.7482 36.7727 46.7328 36.7843 46.7186C37.2321 46.2385 37.7273 45.8047 38.2624 45.4237C39.8219 44.3144 41.6765 43.6915 43.5914 43.6338C44.1849 43.6124 44.7792 43.649 45.3656 43.743C46.683 43.9422 47.9415 44.4233 49.0547 45.1533L49.3633 45.3604C49.3633 45.3269 49.3633 45.3108 49.3633 45.2934C49.3633 44.2193 49.3633 43.1451 49.3633 42.0684C49.3633 41.9754 49.3222 41.9692 49.25 41.9692C48.4513 41.9692 47.6525 41.9692 46.8537 41.9692C46.7504 41.9692 46.7293 41.9407 46.7293 41.8452C46.7293 40.5635 46.7293 39.2817 46.7293 38H50.8352C50.8346 38.007 50.8346 38.0141 50.8352 38.0211C50.8315 38.0428 50.829 38.0648 50.8277 38.0868C50.8277 39.3421 50.8277 40.5969 50.8277 41.8514C50.8277 41.9506 50.8712 41.9568 50.9521 41.9568C51.5979 41.9568 52.2449 41.9568 52.8906 41.9568C52.9195 41.9551 52.9484 41.9606 52.9746 41.9727C53.0009 41.9848 53.0237 42.0032 53.0411 42.0263C53.1427 42.1667 53.2541 42.2998 53.3746 42.4244V42.4703C53.3746 42.5224 53.3746 42.5745 53.3746 42.6266V57.7952C53.3771 57.9031 53.3783 58.0098 53.3796 58.1177Z" fill="#7E7E84"/>
<path d="M20 52.6662C20.0364 52.5099 20.0568 52.3504 20.061 52.1899C20.1822 51.1152 20.4878 50.0693 20.9643 49.0977C21.9025 47.1488 23.4727 45.5725 25.421 44.6236C26.4386 44.1172 27.5404 43.8003 28.6721 43.6884C30.6862 43.4596 32.7204 43.8874 34.4702 44.9077C35.2953 45.3881 36.0407 45.9931 36.6799 46.7013C36.7023 46.7248 36.7197 46.7546 36.7545 46.7645V46.7993C36.7122 46.7993 36.6898 46.834 36.6649 46.86C36.548 46.9928 36.426 47.1217 36.3178 47.2619C35.9818 47.6872 35.679 48.1375 35.412 48.609C35.0917 49.1912 34.828 49.8026 34.6244 50.4348C34.6045 50.5005 34.6058 50.575 34.546 50.6246C34.5249 50.5899 34.5025 50.5564 34.4826 50.5216C33.9278 49.4931 33.0555 48.6702 31.9948 48.1746C30.9341 47.6791 29.7415 47.5374 28.5938 47.7705C26.817 48.1178 25.5031 49.12 24.6372 50.7052C24.4892 50.983 24.3668 51.2736 24.2714 51.5735C24.2515 51.6355 24.2627 51.6553 24.3261 51.6491H34.2163H34.3271C34.3271 51.6566 34.3271 51.664 34.3271 51.6702C34.2897 51.9592 34.2449 52.2458 34.2188 52.5385C34.1855 52.9329 34.1788 53.329 34.1989 53.7243C34.2051 53.8744 34.2076 54.0257 34.2275 54.1758C34.2599 54.4127 34.2798 54.6509 34.3047 54.889C34.2561 54.889 34.2089 54.889 34.1603 54.889H24.346C24.2216 54.889 24.2216 54.889 24.2564 55.0068C24.668 56.303 25.5342 57.4078 26.6964 58.1191C27.8586 58.8303 29.2389 59.1002 30.5845 58.8793C31.8105 58.6883 32.93 58.0736 33.7473 57.1428C33.7661 57.1186 33.7906 57.0995 33.8185 57.0869C33.8465 57.0744 33.8772 57.0689 33.9078 57.0708C34.2499 57.0708 34.5908 57.0708 34.933 57.0708L34.9765 57.082C34.9716 57.1185 34.979 57.1556 34.9977 57.1874C35.1221 57.4789 35.2689 57.7617 35.4257 58.0383C35.7367 58.5882 36.1 59.107 36.5107 59.5876C36.5841 59.6731 36.6998 59.7352 36.7147 59.8666C36.444 60.1855 36.1459 60.4802 35.8239 60.7473C34.578 61.8199 33.0665 62.5399 31.4467 62.8324C29.3985 63.2069 27.2838 62.9146 25.415 61.9988C23.5462 61.0831 22.0224 59.5923 21.0688 57.7468C20.5451 56.7403 20.2079 55.6478 20.0734 54.5219C20.0485 54.3358 20.0373 54.1497 20.0199 53.9587C20.0199 53.9352 20.0286 53.9066 20.0012 53.888L20 52.6662Z" fill="#7E7E84"/>
<path d="M78.851 38.0049C78.9283 38.0384 79.01 38.0606 79.0936 38.0707C79.558 38.199 79.9592 38.492 80.222 38.8946C80.4848 39.2972 80.5909 39.7817 80.5205 40.2569C80.45 40.7321 80.2078 41.1652 79.8394 41.4748C79.471 41.7844 79.0018 41.9491 78.5201 41.938C78.0384 41.9269 77.5774 41.7407 77.2238 41.4144C76.8702 41.0881 76.6484 40.6443 76.6001 40.1663C76.5517 39.6884 76.6803 39.2094 76.9614 38.8193C77.2426 38.4292 77.6571 38.1551 78.1269 38.0483C78.1767 38.0372 78.2314 38.0483 78.2725 38.0049H78.851ZM78.5723 38.2852C78.2374 38.284 77.9097 38.382 77.6307 38.5667C77.3517 38.7513 77.134 39.0145 77.0052 39.3227C76.8765 39.6309 76.8424 39.9703 76.9073 40.2978C76.9723 40.6253 77.1333 40.9262 77.37 41.1624C77.6068 41.3986 77.9085 41.5594 78.237 41.6243C78.5655 41.6893 78.9059 41.6556 79.2152 41.5274C79.5244 41.3993 79.7885 41.1824 79.974 40.9045C80.1595 40.6265 80.258 40.2998 80.257 39.966C80.2544 39.521 80.0759 39.095 79.7603 38.7804C79.4447 38.4658 79.0174 38.2878 78.5711 38.2852H78.5723Z" fill="#7E7E84"/>
<path d="M50.8464 62.9763C50.8464 62.9329 50.8376 62.8882 50.8376 62.8436C50.8376 61.5875 50.8376 60.3306 50.8376 59.0728C50.8376 58.9624 50.8613 58.9277 50.9782 58.9289C51.5307 58.9364 52.0831 58.9289 52.6355 58.9289C52.6663 58.9315 52.6971 58.9264 52.7254 58.914C52.7536 58.9017 52.7783 58.8825 52.7973 58.8582C52.9901 58.6201 53.1867 58.3856 53.3808 58.15C53.3808 58.372 53.3808 58.594 53.3808 58.816C53.3808 58.9041 53.4057 58.9289 53.4928 58.9277C54.421 58.9277 55.3491 58.9277 56.2773 58.9277C56.3918 58.9277 56.4179 58.9587 56.4167 59.0691C56.4167 60.3748 56.4167 61.6809 56.4167 62.9874H56.3383H51.0716H50.9932C50.9459 62.9614 50.8949 62.98 50.8464 62.9763Z" fill="#7E7E84"/>
<path d="M36.7147 59.8704C36.6998 59.7389 36.5841 59.6769 36.5107 59.5913C36.1004 59.1075 35.7379 58.5854 35.4282 58.0322C35.2714 57.7556 35.1296 57.4728 35.0002 57.1813C34.9815 57.1495 34.9741 57.1124 34.979 57.0758C35.0201 57.0758 35.0612 57.0696 35.1035 57.0696H38.3297C38.4641 57.0696 38.4641 57.0696 38.4131 57.1937C38.0198 58.1296 37.4783 58.9965 36.8093 59.7613C36.7856 59.7873 36.7545 59.8121 36.7558 59.8543L36.7147 59.8704Z" fill="#7E7E84"/>
<path d="M50.8463 62.9763C50.8948 62.9763 50.9458 62.9614 50.9931 62.9899H50.8438C50.8432 62.9852 50.8441 62.9805 50.8463 62.9763V62.9763Z" fill="#7E7E84"/>
<path d="M53.3783 42.4269C53.2578 42.3022 53.1464 42.1692 53.0449 42.0287C53.0275 42.0057 53.0046 41.9872 52.9783 41.9751C52.9521 41.963 52.9232 41.9576 52.8943 41.9593C52.2486 41.9593 51.6016 41.9593 50.9558 41.9593C50.8787 41.9593 50.8314 41.9593 50.8314 41.8538C50.8314 40.6002 50.8314 39.3454 50.8314 38.0893C50.8327 38.0672 50.8352 38.0453 50.8389 38.0235C51.6439 38.0235 52.4564 38.0235 53.2551 38.0235C53.3447 38.0235 53.3796 38.0446 53.3796 38.1389C53.3783 39.569 53.3796 40.998 53.3783 42.4269Z" fill="#7E7E84"/>
<path d="M34.3247 54.8927L34.3061 54.8803C34.2812 54.6421 34.2613 54.404 34.2289 54.1671C34.209 54.017 34.2065 53.8657 34.2003 53.7156C34.1802 53.3203 34.1868 52.9241 34.2202 52.5298C34.2463 52.2408 34.2911 51.9542 34.3284 51.6615C34.5101 51.6615 34.6905 51.6615 34.8709 51.6615C34.9431 51.6615 34.9617 51.6417 34.9381 51.5697C34.8696 51.345 34.7865 51.125 34.6893 50.9111C34.6519 50.8342 34.6407 50.7411 34.5648 50.6866L34.5512 50.6233C34.6109 50.5737 34.6096 50.4993 34.6295 50.4335C34.8331 49.8013 35.0968 49.1899 35.4171 48.6077C35.6841 48.1362 35.9869 47.6859 36.3229 47.2606C36.4312 47.1205 36.5531 46.9915 36.67 46.8588C36.6949 46.8327 36.7173 46.8005 36.7596 46.798C37.7102 47.8756 38.4066 49.1517 38.7976 50.5328C38.8076 50.5662 38.7976 50.6097 38.8474 50.6258C38.8474 50.6543 38.8474 50.6828 38.8474 50.7114C38.7864 50.7188 38.779 50.7734 38.7591 50.8143C38.4299 51.4757 38.2366 52.196 38.1905 52.9329C38.1483 53.4923 38.1945 54.0548 38.3273 54.6C38.3578 54.6903 38.3766 54.784 38.3833 54.879C38.3311 54.879 38.2788 54.8852 38.2278 54.8852H34.4578C34.4131 54.884 34.3695 54.889 34.3247 54.8927Z" fill="#7E7E84"/>
<path d="M38.3819 54.8742C38.3752 54.7791 38.3564 54.6854 38.3259 54.5951C38.1931 54.0499 38.1469 53.4874 38.1891 52.928C38.2352 52.1911 38.4285 51.4708 38.7577 50.8094C38.7776 50.7685 38.7851 50.7139 38.846 50.7065C38.9441 51.0359 39.0177 51.3722 39.0663 51.7124C39.1777 52.4178 39.2148 53.1328 39.177 53.8459C39.1596 54.1634 39.128 54.4797 39.0824 54.7948C39.0725 54.8692 39.0426 54.8828 38.9767 54.8828C38.7875 54.8828 38.6034 54.8828 38.4093 54.8828L38.3819 54.8742Z" fill="#7E7E84"/>
<path d="M34.3272 51.6491C34.3782 51.3452 34.4516 51.0451 34.5288 50.7486C34.5288 50.7275 34.5375 50.7052 34.5599 50.6928C34.637 50.7474 34.6482 50.8404 34.6843 50.9173C34.7815 51.1313 34.8646 51.3513 34.9331 51.576C34.9568 51.6479 34.9331 51.669 34.866 51.6677C34.6856 51.6677 34.5051 51.6677 34.3235 51.6677C34.3285 51.6591 34.3272 51.6491 34.3272 51.6491Z" fill="#7E7E84"/>
<path d="M79.5441 41.1369C79.4196 41.1369 79.2878 41.1369 79.1584 41.1369C79.1049 41.1369 79.0949 41.0923 79.075 41.0588C78.9319 40.8169 78.7863 40.5763 78.6495 40.3307C78.6335 40.29 78.6045 40.2557 78.5669 40.2332C78.5292 40.2108 78.4852 40.2014 78.4417 40.2066C78.2302 40.2153 78.2302 40.2066 78.2302 40.42C78.2302 40.6333 78.2302 40.8343 78.2302 41.0402C78.2302 41.1133 78.2078 41.1332 78.1356 41.1344C77.8383 41.1344 77.8383 41.1344 77.8383 40.8429C77.8383 40.1992 77.8383 39.5554 77.8383 38.9104C77.8383 38.8261 77.8544 38.7864 77.9465 38.7976C78.2277 38.8124 78.5114 38.7777 78.7913 38.8199C79.1235 38.8695 79.3002 39.0295 79.3562 39.3284C79.3907 39.4703 79.3765 39.6197 79.3159 39.7526C79.2552 39.8855 79.1515 39.9943 79.0215 40.0615C78.9605 40.095 78.9543 40.121 78.9904 40.1793C79.1658 40.4622 79.3363 40.7487 79.508 41.034C79.5242 41.0662 79.5515 41.0898 79.5441 41.1369ZM78.2289 39.517V39.8159C78.2289 39.8494 78.2289 39.8879 78.275 39.8879C78.4479 39.8879 78.6258 39.9102 78.7851 39.8172C78.8565 39.776 78.9122 39.7124 78.9434 39.6363C78.9747 39.5602 78.9799 39.476 78.958 39.3967C78.9319 39.2652 78.8411 39.1895 78.6731 39.156C78.5492 39.142 78.4245 39.137 78.2999 39.1411C78.2426 39.1411 78.2314 39.1684 78.2314 39.2168C78.2289 39.3173 78.2289 39.4165 78.2289 39.517Z" fill="#7E7E84"/>
</mask>
<g mask="url(#mask0)">
<rect x="17" y="17" width="67" height="63" fill="#7E7E84"/>
</g>
</svg>
