<svg width="100" height="100" viewBox="0 0 100 100" fill="none" xmlns="http://www.w3.org/2000/svg">
<rect width="100" height="100" rx="31" fill="#F2F2F7"/>
<path d="M26.3145 62V40.584H32.1299V62H26.3145ZM36.7734 62V40.584H42.5596V57.3271H50.8066V62H36.7734ZM74.2734 51.2627C74.2734 54.8662 73.3896 57.6055 71.6221 59.4805C69.8545 61.3555 67.2666 62.293 63.8584 62.293C60.499 62.293 57.9209 61.3506 56.124 59.4658C54.3369 57.5811 53.4434 54.8369 53.4434 51.2334C53.4434 47.6689 54.332 44.9492 56.1094 43.0742C57.8965 41.1895 60.4893 40.2471 63.8877 40.2471C67.2959 40.2471 69.8789 41.1797 71.6367 43.0449C73.3945 44.9102 74.2734 47.6494 74.2734 51.2627ZM59.5371 51.2627C59.5371 55.4033 60.9775 57.4736 63.8584 57.4736C65.3232 57.4736 66.4072 56.9707 67.1104 55.9648C67.8232 54.959 68.1797 53.3916 68.1797 51.2627C68.1797 49.124 67.8184 47.5469 67.0957 46.5312C66.3828 45.5059 65.3135 44.9932 63.8877 44.9932C60.9873 44.9932 59.5371 47.083 59.5371 51.2627Z" fill="#7E7E84"/>
</svg>
